<svg width="418" height="75" viewBox="0 0 418 75" fill="none" xmlns="http://www.w3.org/2000/svg">
<g clip-path="url(#clip0_524207_124)">
<path d="M12.7903 50.6862H18.5853C19.6168 50.6119 20.6373 50.9378 21.4349 51.5961C21.759 51.9356 22.0093 52.3386 22.17 52.7795C22.3307 53.2205 22.3984 53.69 22.3688 54.1584C22.3985 54.653 22.322 55.1483 22.1444 55.6109C21.9668 56.0735 21.6922 56.4927 21.3391 56.8404C20.4545 57.5493 19.3319 57.8921 18.2022 57.7982H16.2865V61.9888H12.7903V50.6862ZM16.2865 55.4754H17.1485C17.6275 55.5757 18.1264 55.508 18.5614 55.2839C18.6919 55.1714 18.796 55.0315 18.8663 54.8743C18.9367 54.717 18.9716 54.5462 18.9684 54.3739C18.9712 54.2097 18.9409 54.0465 18.8792 53.8943C18.8174 53.742 18.7256 53.6038 18.6092 53.4879C18.4432 53.3022 18.2404 53.1531 18.0137 53.0501C17.7869 52.947 17.5412 52.8922 17.2922 52.8892H16.2865V55.4754Z" fill="white"/>
<path d="M35.3238 60.0731H31.3727L30.8219 61.9409H27.2539L31.4924 50.6382H35.2999L39.5384 61.9888H35.9464L35.3238 60.0731ZM34.6054 57.6784L33.3602 53.6315L32.115 57.6784H34.6054Z" fill="white"/>
<path d="M43.7051 50.686H47.5844L49.979 54.5175L52.3737 50.686H56.229L51.8468 57.2713V62.0606H48.1112V57.2713L43.7051 50.686Z" fill="white"/>
<path d="M62.5986 50.686H67.1963L68.9684 57.6784L70.7165 50.7818H75.3142V61.9887H72.4406V53.368L70.2375 61.9887H67.6513L65.4722 53.368V61.9887H62.5986V50.686Z" fill="white"/>
<path d="M83.0489 50.686H92.4119V53.0807H86.545V54.8766H91.9809V57.2713H86.545V59.4983H92.5795V61.9887H83.001L83.0489 50.686Z" fill="white"/>
<path d="M100.003 50.686H103.26L107.522 56.936V50.686H110.803V61.9887H107.522L103.284 55.7866V61.9887H100.003V50.686Z" fill="white"/>
<path d="M117.867 50.686H128.475V53.4878H124.907V61.9887H121.411V53.4878H117.867V50.686Z" fill="white"/>
<path d="M134.965 58.2533L138.293 58.0378C138.328 58.4829 138.476 58.9117 138.724 59.283C138.911 59.5125 139.149 59.6949 139.42 59.8155C139.69 59.9361 139.985 59.9916 140.281 59.9775C140.694 59.9977 141.102 59.8704 141.43 59.6183C141.553 59.5205 141.654 59.3969 141.724 59.2563C141.794 59.1156 141.833 58.9613 141.837 58.8041C141.83 58.6534 141.792 58.5058 141.726 58.3701C141.66 58.2343 141.568 58.1132 141.454 58.0139C140.907 57.6757 140.295 57.4555 139.658 57.3673C138.476 57.1625 137.356 56.6962 136.377 56.0024C136.063 55.7293 135.812 55.3905 135.642 55.0098C135.472 54.6292 135.388 54.216 135.396 53.7993C135.396 53.2184 135.571 52.6511 135.899 52.171C136.264 51.619 136.791 51.1926 137.407 50.9497C138.294 50.6163 139.238 50.4617 140.185 50.4947C141.344 50.4232 142.497 50.7073 143.49 51.3089C143.89 51.6111 144.219 51.9969 144.455 52.4394C144.691 52.8819 144.827 53.3705 144.854 53.8712L141.55 54.0627C141.518 53.6376 141.32 53.2421 140.999 52.9612C140.675 52.7011 140.264 52.5729 139.85 52.602C139.514 52.5793 139.181 52.6816 138.916 52.8894C138.818 52.9612 138.739 53.0551 138.685 53.1633C138.631 53.2715 138.604 53.391 138.604 53.512C138.603 53.6086 138.623 53.7044 138.665 53.7917C138.706 53.8789 138.768 53.9554 138.844 54.0148C139.202 54.2311 139.602 54.3697 140.017 54.4219C141.146 54.6275 142.248 54.9651 143.298 55.4277C143.89 55.6906 144.39 56.1241 144.735 56.6729C145.044 57.1766 145.201 57.7584 145.19 58.3491C145.197 59.0572 144.989 59.7507 144.591 60.3367C144.18 60.959 143.598 61.4495 142.915 61.7495C142.045 62.0834 141.116 62.2382 140.185 62.2045C138.768 62.361 137.344 61.9667 136.21 61.103C135.458 60.3385 135.015 59.324 134.965 58.2533Z" fill="white"/>
<path d="M19.6868 16.8024L14.9933 13.1626H12V39.1683H15.2088V16.994L19.6868 20.2986V39.1683H22.7759V13.1626H19.6868V16.8024Z" fill="white"/>
<path d="M41.0709 22.3819L39.7538 19.3887H35.2759V15.9643H40.0412V13.1626H32.3305V19.6521H30.1753L31.2529 22.2383H32.3305V39.1683H40.1849V36.2229H35.3477V22.3819H41.0709Z" fill="white"/>
<path d="M48.8296 16.2277H52.7568V39.1683H55.8219V16.2277H59.3899V13.1626H48.8296V16.2277Z" fill="white"/>
<path d="M124.883 13.1626H121.674V39.1683H124.883V13.1626Z" fill="white"/>
<path d="M139.802 13.1626C135.252 13.1626 135.013 16.5869 135.013 16.5869V19.3647H132.929L133.911 22.358H134.893V39.1205H138.054V22.358H141.813V39.1205H144.687V16.5869C144.687 16.5869 144.328 13.1626 139.802 13.1626ZM141.885 19.3647H138.054V17.1377C138.054 17.1377 137.838 15.8925 139.658 15.8925C141.478 15.8925 141.885 16.994 141.885 16.994V19.3647Z" fill="white"/>
<path d="M78.7623 12.1809C75.0638 12.149 71.5037 13.586 68.8638 16.1766C66.2239 18.7671 64.7198 22.2994 64.6819 25.9979C64.6819 29.745 66.1704 33.3386 68.82 35.9882C71.4696 38.6378 75.0632 40.1263 78.8102 40.1263C82.5573 40.1263 86.1509 38.6378 88.8005 35.9882C91.4501 33.3386 92.9386 29.745 92.9386 25.9979C92.9199 24.1584 92.5378 22.3408 91.8143 20.6494C91.0908 18.958 90.0402 17.4264 88.7228 16.1424C87.4055 14.8584 85.8473 13.8474 84.138 13.1675C82.4286 12.4877 80.6017 12.1524 78.7623 12.1809ZM78.7623 36.6541C77.3472 36.6699 75.9428 36.4068 74.6294 35.8798C73.3159 35.3528 72.1192 34.5723 71.1074 33.5827C70.0956 32.5932 69.2887 31.4141 68.7327 30.1127C68.1766 28.8112 67.8824 27.4131 67.8668 25.9979C67.8668 23.1082 69.0147 20.3369 71.058 18.2936C73.1013 16.2503 75.8727 15.1023 78.7623 15.1023C81.652 15.1023 84.4234 16.2503 86.4667 18.2936C88.51 20.3369 89.6579 23.1082 89.6579 25.9979C89.6201 28.8539 88.4524 31.5786 86.4104 33.5757C84.3684 35.5728 81.6185 36.6796 78.7623 36.6541Z" fill="white"/>
<path d="M103.787 13.1626H100.793V39.1683H104.074V34.3791C104.074 34.3791 114.203 33.8523 114.203 24.154C114.203 14.4557 103.787 13.1626 103.787 13.1626ZM103.906 31.8408V16.2996C105.927 16.3976 107.833 17.2668 109.231 18.728C110.63 20.1892 111.416 22.1312 111.425 24.154C111.425 30.4998 103.906 31.8408 103.906 31.8408Z" fill="white"/>
</g>
<path d="M208.722 17.5254H186.795V56.8354H208.722V17.5254Z" fill="#FF5F00"/>
<path d="M188.187 37.1807C188.184 33.3948 189.044 29.6578 190.702 26.2526C192.36 22.8473 194.773 19.863 197.758 17.5257C194.062 14.6268 189.622 12.8241 184.947 12.3234C180.272 11.8228 175.55 12.6446 171.321 14.6947C167.091 16.7449 163.526 19.9408 161.031 23.9171C158.537 27.8934 157.214 32.4897 157.214 37.1807C157.214 41.8716 158.537 46.4679 161.031 50.4442C163.526 54.4205 167.091 57.6164 171.321 59.6666C175.55 61.7168 180.272 62.5385 184.947 62.0379C189.622 61.5373 194.062 59.7345 197.758 56.8357C194.773 54.4983 192.36 51.514 190.702 48.1088C189.044 44.7035 188.184 40.9665 188.187 37.1807V37.1807Z" fill="#EB001B"/>
<path d="M238.302 37.1807C238.302 41.8715 236.979 46.4678 234.485 50.4441C231.99 54.4204 228.425 57.6163 224.196 59.6665C219.966 61.7167 215.244 62.5385 210.569 62.0379C205.894 61.5373 201.455 59.7345 197.758 56.8357C200.741 54.4959 203.152 51.5112 204.81 48.1065C206.468 44.7017 207.329 40.9659 207.329 37.1807C207.329 33.3954 206.468 29.6596 204.81 26.2549C203.152 22.8501 200.741 19.8654 197.758 17.5257C201.455 14.6268 205.894 12.824 210.569 12.3234C215.244 11.8228 219.966 12.6446 224.196 14.6948C228.425 16.745 231.99 19.9409 234.485 23.9172C236.979 27.8935 238.302 32.4898 238.302 37.1807V37.1807Z" fill="#F79E1B"/>
<path d="M235.912 52.672V51.8672H236.237V51.7032H235.408V51.8672H235.734V52.672H235.912ZM237.52 52.672V51.7017H237.266L236.974 52.3691L236.682 51.7017H236.428V52.672H236.607V51.9401L236.881 52.5711H237.067L237.341 51.9385V52.672H237.52Z" fill="#F79E1B"/>
<path d="M309.094 13.0644L288.821 61.4243H275.595L265.619 22.8309C265.013 20.4538 264.487 19.5829 262.645 18.5815C259.637 16.9502 254.671 15.4198 250.302 14.4699L250.599 13.0644H271.889C274.602 13.0644 277.042 14.8706 277.658 17.9952L282.927 45.9787L295.948 13.0636H309.094V13.0644ZM360.916 45.6352C360.969 32.8715 343.264 32.1684 343.386 26.4667C343.424 24.7315 345.076 22.8865 348.693 22.4156C350.486 22.181 355.426 22.002 361.028 24.5799L363.226 14.3247C360.215 13.2321 356.342 12.1807 351.522 12.1807C339.155 12.1807 330.452 18.754 330.378 28.1665C330.298 35.1285 336.59 39.0135 341.331 41.3269C346.208 43.696 347.844 45.2183 347.825 47.3374C347.791 50.5814 343.936 52.0134 340.333 52.0699C334.044 52.1666 330.395 50.3685 327.486 49.0162L325.218 59.6108C328.142 60.9518 333.538 62.1218 339.132 62.1807C352.277 62.1807 360.876 55.6888 360.916 45.6352ZM393.573 61.4243H405.145L395.044 13.0644H384.363C381.962 13.0644 379.936 14.4626 379.039 16.6124L360.264 61.4243H373.402L376.01 54.2011H392.063L393.573 61.4243ZM379.613 44.2894L386.198 26.1321L389.989 44.2894H379.613ZM326.971 13.0644L316.625 61.4243H304.113L314.463 13.0644H326.971V13.0644Z" fill="white"/>
<defs>
<clipPath id="clip0_524207_124">
<rect width="133.214" height="50" fill="white" transform="translate(12 12.1807)"/>
</clipPath>
</defs>
</svg>
